<?xml version="1.0" encoding="utf-8"?>
<!DOCTYPE svg PUBLIC "-//W3C//DTD SVG 1.1//EN" "http://www.w3.org/Graphics/SVG/1.1/DTD/svg11.dtd">
<svg version="1.1"  xmlns="http://www.w3.org/2000/svg" xmlns:xlink="http://www.w3.org/1999/xlink" x="0px" y="0px"
	 width="198.916px" height="47.417px" viewBox="0 0 198.916 47.417" enable-background="new 0 0 198.916 47.417"
	 xml:space="preserve">
<path fill="#226DAA" d="M4.377,6.969H0.328V2.157h4.049V6.969z M4.377,35.22H0.328V10.685h4.049V35.22z"/>
<path fill="#226DAA" d="M26.94,35.22h-4.001V20.309c0-3.764-2.097-6.527-6.003-6.527c-3.716,0-6.432,2.764-6.432,6.432V35.22h-4.05
	V10.685h3.907v2.668c1.667-2.048,4.192-3.287,7.146-3.287c6.004,0,9.433,4.288,9.433,10.386V35.22z"/>
<path fill="#226DAA" d="M38.934,35.84c-5.954,0-10.289-3.192-10.955-8.386h4.097c0.523,2.858,3.334,4.622,6.858,4.622
	c3.812,0,6.146-1.857,6.146-4.002c0-1.715-0.667-3.002-6.669-3.812c-5.956-0.857-9.577-2.287-9.577-6.908
	c0-3.526,3.05-7.289,9.623-7.289c5.67,0,9.482,2.858,10.007,7.669h-4.098c-0.572-2.62-2.906-3.954-5.909-3.954
	c-3.238,0-5.573,1.524-5.573,3.431c0,1.763,1.382,2.382,6.193,3.145c5.431,0.856,9.91,1.905,9.91,7.479
	C48.987,32.744,44.795,35.84,38.934,35.84z"/>
<path fill="#226DAA" d="M61.451,35.22c-5.718,0.668-9.671-2.715-9.671-8.956v-11.72h-3.336v-3.859h3.336v-5.24h4.002v5.24h5.573
	v3.859h-5.573v11.72c0,4.336,2.667,5.431,5.669,5.24V35.22z"/>
<path fill="#226DAA" d="M79.72,32.409c-1.763,2.144-4.623,3.383-8.434,3.383c-5.05,0-9.576-2.288-9.576-7.575
	c0-5.05,3.668-7.337,10.005-7.67c6.002-0.286,7.957-1.382,7.957-3.335s-1.859-3.431-6.004-3.431c-2.572,0-5.955,0.811-6.384,4.383
	h-4.191c0.286-4.907,4.334-8.098,10.623-8.098c6.575,0,9.91,3.048,9.91,7.623v13.53c0,1.238,0.333,3.048,0.714,4.001h-4.002
	C80.005,34.505,79.767,33.553,79.72,32.409z M79.672,22.024c-1.62,1.429-4.527,1.763-7.433,1.953
	c-5.336,0.334-6.526,2.192-6.526,4.24c0,2.668,2.572,3.812,5.716,3.812c4.193,0,8.147-1.81,8.243-6.241V22.024z"/>
<path fill="#226DAA" d="M97.294,14.115c-4.241-0.238-7.861,2.001-7.861,6.908V35.22h-4.05V10.685h3.906v2.763
	c1.858-2.621,5.193-3.667,8.005-3.335V14.115z"/>
<path fill="#226DAA" d="M111.366,35.22c-5.717,0.668-9.672-2.715-9.672-8.956v-11.72H98.36v-3.859h3.334v-5.24h4.003v5.24h5.574
	v3.859h-5.574v11.72c0,4.336,2.668,5.431,5.669,5.24V35.22z"/>
<path fill="#899197" d="M121.702,33.6v1.62c-5.289,0.478-8.338-3.001-8.338-8.479V0.183h1.763V26.74
	C115.127,30.933,117.032,33.791,121.702,33.6z"/>
<path fill="#899197" d="M168.985,34.553c0,7.575-4.859,12.673-12.1,12.673c-5.765,0-9.957-3.002-11.435-8.052h1.858
	c1.381,3.955,4.859,6.289,9.576,6.289c6.289,0,10.337-4.287,10.337-10.91v-5.049c-1.953,3.811-5.764,6.336-10.433,6.336
	c-6.765,0-12.243-5.766-12.243-12.816c0-7.146,5.479-12.958,12.243-12.958c4.669,0,8.479,2.525,10.433,6.383v-5.764h1.763V34.553z
	 M156.79,11.875c-5.812,0-10.48,5.003-10.48,11.148c0,6.051,4.668,11.005,10.48,11.005c6.051,0,10.433-4.621,10.433-11.005
	C167.223,16.545,162.841,11.875,156.79,11.875z"/>
<path fill="#899197" d="M172.851,8.027h-1.762V3.645h1.762V8.027z M172.851,35.22h-1.762V10.685h1.762V35.22z"/>
<path fill="#899197" d="M187.146,35.792c-6.763,0-12.242-5.718-12.242-12.768c0-7.146,5.479-12.958,12.242-12.958
	c5.433,0,9.673,3.239,11.341,8.194h-1.907c-1.572-3.906-5.051-6.384-9.434-6.384c-5.764,0-10.479,5.003-10.479,11.148
	c0,6.051,4.716,11.005,10.479,11.005c4.526,0,8.005-2.479,9.482-6.433h1.858C196.866,32.553,192.579,35.792,187.146,35.792z"/>
<g>
	<path fill="#899197" d="M118.784,22.773h1.773c0.124-5.841,4.358-10.581,9.679-11.04v-1.682
		C123.959,10.506,118.913,16.016,118.784,22.773z"/>
	<path fill="#226DAA" d="M141.6,22.773h1.823c-0.128-6.757-5.173-12.267-11.491-12.722v1.682
		C137.287,12.192,141.479,16.932,141.6,22.773z"/>
	<path fill="#899197" d="M120.64,24.434h-1.782c0.642,6.135,5.462,10.974,11.379,11.395v-1.682
		C125.275,33.723,121.26,29.615,120.64,24.434z"/>
	<path fill="#899197" d="M131.932,34.146v1.682c5.955-0.421,10.778-5.26,11.421-11.395h-1.829
		C140.907,29.615,136.924,33.723,131.932,34.146z"/>
</g>
</svg>
