<svg xmlns="http://www.w3.org/2000/svg" viewBox="0 0 464 464">
  <title>
    Estelle Weyl
  </title>
  <path fill="#734a3e" d="M401.8 319.2c4-8 3.3-17.4-1-25.4 4-2.5 7.5-6 9.8-10.4 6.2-12.4 1.2-27.7-10.6-36.7 1.8-2 3.5-4 4.7-6.4 7-14.3-.2-32.3-16.5-40.4l-117-59-40.4 109 98 104.4c12.3 13 35 3 42.3-11 2-3.3 3-6.8 3-10 12 .7 23-4.8 28-15z"/>
  <path fill="#F6B47B" d="M380.4 436.8l-9.2-69c-1-6.4-3.4-12.5-7-17.7 1.7-3 .4-8-3.2-10l-26.3-16c-3.7-2-8.5-1-11 3l-.4 1-32.4-12c-7-2-11-8-11-15v-26l34-14c18-7 29-25 29-44v-72c0-22-18-56-40-56H160c-22 0-40 34-40 56v72c0 20 11.7 37 29.5 45l34.5 14v26c0 7-4.4 13-11 15l-32.3 12-.5-1c-2.3-3.6-7.2-5-11-2.6L103 340c-3.6 2-5 6.6-3 10.3-3.8 5.5-6.3 11.6-7.2 18l-9.2 69c-2 14.4 9.3 27 23.8 27h249.2c14.5 0 25.7-12.6 23.8-27z"/>
  <path fill="#E2A071" d="M280 274h-96v26.5c0 5.7-3 10.8-7.7 13.7C243.3 325.7 280 274 280 274z"/>
  <path fill="#FDC88E" d="M314.5 260.3L262.8 282c-9.8 4-20.2 6-30.8 6-10.6 0-21-2-30.8-6l-51.7-21.7c-17.8-7.4-29.5-25-29.5-44.3v-72c0-22 18-56 40-56h144c22 0 40 34 40 56v72c0 19.4-11.6 37-29.5 44.3z"/>
  <path fill="#623F33" d="M176 192c-4.4 0-8-3.6-8-8v-8c0-4.4 3.6-8 8-8s8 3.6 8 8v8c0 4.4-3.6 8-8 8zm112 0c-4.4 0-8-3.6-8-8v-8c0-4.4 3.6-8 8-8s8 3.6 8 8v8c0 4.4-3.6 8-8 8z"/>
  <path fill="#E2A071" d="M232 248.2c-14.2 0-27.5-3.5-36.5-9.6-3.6-2.5-4.6-7.4-2-11 2.4-3.7 7.4-4.7 11-2.2 6.3 4.3 16.6 6.8 27.5 6.8s21.2-2.5 27.5-6.8c3.7-2.5 8.6-1.5 11 2 2.6 3.8 1.7 8.7-2 11.2-9 6-22.3 9.6-36.5 9.6z"/>
  <path fill="#f6b47b" d="M232 64s-22.3 28.3-74 60c-16 9.7-38 30.6-38 50v42c0 19.4 11.7 37 29.5 44.3l51.7 21.6c2.6 1 5 1 7.8 2-23-17-38-32-47-41-6.5-7-10-16-10-26v-56c24.7-27 35.3-50 36.3-74C189 71 232 63 232 63z"/>
  <path fill="#5e342e" d="M181.2 110.7C198 103.4 216 114 235 114c18.5 0 39-10 55.4-1.3 23 12.4 51.8 58.6 51.8 58.6S374 94.8 332.6 62c-36-37.8-165.6-39.4-197.4-2.8-52.7 50.4-13.8 111.5-13.8 111.5s33.8-48.7 59.8-60z"/>
  <g style="transform:translate(5px, 9px)">
    <path fill="#FFA64E" d="M228 358c32.6 0 61-18 75.5-44.8l-16.6-5.5c-2-.6-3-1.4-5-2.3-11 18.3-32 30.6-55 30.6s-43-12.3-54-30.6c-2 1-3 1.7-5 2.3l-17 5.5c15 26.8 43.3 44.8 76 44.8z"/>
    <path fill="#B2765c" d="M384.6 429l-10-81c-1.6-12.2-10-22.5-21.7-26.4l-40-13c-7-2.2-15 .2-19 6.2-14 22.4-39 37.2-68 37.2s-53-14.8-67-37.2c-4-6-12-8.4-18.8-6.2l-39 13c-11.8 4-20 14.2-21.7 26.4l-10 81c-2 14.4 9.5 27 24 27h266c14.5 0 25.6-12.6 24-27z"/>
    <path fill="#FFC84A" d="M88.2 332.2c-3.6 4.5-6 10-6.7 15.8l-10 81c-2 14.4 9.3 27 23.7 27H140v-52c0-7.8-2.8-15.2-7.8-21l-44-50.8zm279.6 0c3.6 4.5 6 10 6.7 15.8l10 81c2 14.4-9.2 27-23.7 27H316v-52c0-7.8 2.8-15.2 7.8-21l44-50.8z"/>
  </g>
  <ellipse cx="115.3" cy="194.8" fill="#F6B47B" rx="13.7" ry="22.5"/>
  <ellipse cx="347.3" cy="194.8" fill="#FDC88E" rx="13.7" ry="22.5"/>
</svg>