<svg xmlns="http://www.w3.org/2000/svg" viewBox="0 0 464 464">
  <path fill="#a2795c" d="M402.6 356c-1.5-12.2-10-22.5-21.6-26.4-21.4-11.5-75-12.2-77-29v-26l34.6-14.3c18-7.4 29.5-25 29.5-44.3v-8c14 0 24-10.7 24-24s-10-24-24-24v-32c0-22-17-40-40-40H184c-22 0-40 18-40 40v32c-13 0-24 10.7-24 24s11 24 24 24v8c0 19.4 11.8 37 29.6 44.3l34.5 14.4v25.8c0 7-4 13-10 15-22 3-42 6.4-65 14-12 4-20 14.3-21 26.5 4 63.7-11 109.4 19 108h256c9 0 16-7.5 16-16 1-58.8 2 6.3 0-92z"/>
  <path fill="#AD8366" d="M368 160v-32c0-22-17.8-40-40-40H184c-22 0-40 18-40 40v32c-13.3 0-24 10.7-24 24s10.7 24 24 24v8c0 19.4 11.8 37 29.6 44.3l51.7 21.5c9.8 4 20.2 6.2 30.8 6.2 11 0 21-2 31-6.2l52-21.5c18-7.4 30-25 30-44.3v-8c14 0 24-10.7 24-24s-10-24-24-24z"/>
  <path fill="#A2795C" d="M186 243.7c-6.4-7-10-16-10-25.6v-89h-32v31c-13 0-24 11-24 24s11 24 24 24v8c0 20 11.8 37 29.6 45l51.7 22 7.8 3c-22-16-38-31-47-41z"/>
  <path fill="#623F33" d="M200 192c-4.3 0-8-3.6-8-8v-8c0-4.4 3.7-8 8-8 4.5 0 8 3.6 8 8v8c0 4.4-3.5 8-8 8zm112 0c-4.3 0-8-3.6-8-8v-8c0-4.4 3.7-8 8-8 4.5 0 8 3.6 8 8v8c0 4.4-3.5 8-8 8z"/>
  <path fill="#C93F44" d="M146 112l-90.4 7.4c-4.3.3-7.6 4-7.6 8.3 0 4.6 3.7 8.3 8.3 8.3H146v-24z"/>
  <path fill="#FF4F4F" d="M349.4 36.6L271.4 3c-4.8-2-10-3-15.3-3-5 0-10 1-15 3l-78 33.6c-16 6.8-25 23-24 40.3l6 59h136c5 0 8-4 8-8v-24c0-5 4-8 8-8h48c5 0 8 3 8 8v24c0 4 4 8 8 8h8l6-59c2-18-8-34-24-41z"/>
  <path fill="#F23F44" d="M256 0c-5 0-10.3 1-15 3l-78 33.6c-16 6.8-25.6 23-24 40.3l5.3 59h64V68c0-12.8 5.2-25 14.2-34l34-34zm32 112h64v16h-64z"/>
  <path fill="#cdcdc8" d="M259.5 364.8c32.6 0 61-18.4 75.5-46l-16.6-5.5c-2-.6-3-1.4-5-2.3-11 18.7-32 31.3-55 31.3s-43-12.6-54-31.3c-2 1-3 1.7-5 2.3L183 319c15 27.4 43.5 45.8 76 45.8z"/>
  <path fill="#33333a" d="M416 437.4l-10-83c-1.5-12.3-10-23-21.6-27l-40-13.2c-7-2.2-15 .2-19 6.4-14 23-39 38-67.6 38-28.6 0-53-15-67-38-4-6.2-11.6-8.6-18.4-6.4l-39 13.3c-11.7 4-20 14.6-21.6 27l-10 83c-2 14.6 9.5 27.5 24 27.5h265.7c14.6 0 25.7-13 24-27.6z"/>
  <path fill="#FF4F4F" d="M119.7 338.4c-3.6 4.6-6 10.2-6.7 16l-10 83c-2 14.7 9.3 27.6 23.7 27.6h44.8v-53.2c0-8-2.8-15.5-7.8-21.4l-44-52zm279.6 0c3.6 4.6 6 10.2 6.7 16l10 83c2 14.7-9.2 27.6-23.7 27.6h-44.8v-53.2c0-8 2.8-15.5 7.8-21.4l44-52z"/>
  <path fill="#502d16" d="M369.6 135.6c-15.8 0 12.8-.2-5.3 0 1.7 16.6-7.3 26.4-10.6 45.5 1 3 1 8 1 12 0 17-18.4 37-37 38-13.7 1-27-8-33.2-17-10 1-15.3 10-26.5 10l-10.5-1c-11.8 1-17.5-12-27.6-8-7 9-19 19-32 18-19-1-37-20-37-37-3-3-1-6-1-9-5-17-3-29-2-47h-6c-6 26-22 112 30 166 0 0 5 5 5-6 0 0 4 30 72 30s73-30 73-30c0 11 4 8 4 8 56-32 44-165 40-168l-1 1"/>
  <path fill="#ad8366" d="M250 236c-15.2-9.8-31 6.4-43.4 15.5-4.6 4-4 7.8-.5 13.7 4 6 14 6.6 19 2.5 11-4 21-5.4 33-5.6 8 0 18 0 28 6 7 2 15 3 17-3 4-6 6-9 0-13-11-9-27-23-43-15-4 2-6 2-8 0z"/>
  <path fill="#9a725c" d="M255.5 258.3c-14 0-27.4-2.4-36.4-6.6-3-1.8-1-4.7 2-7.2s2-2.5 6-.8c7 3 19 5.7 30 5.7s24-2.4 30-5.4c4-1.7 5-2 7 .6 3 2.7 5 5.3 1 7-9 4.2-22 6.7-36 6.7z"/>
  <path fill="#d81f26" d="M209.2 478.3c-2 .4-4 .5-6.2.7l-6.5-19v20c-2 0-4 .4-5.8.6v-36.3h5.4l8 20.7v-21h6v34zm11.2-20.7h7.5v5.6h-8v8.5c3-.2 6-.5 10-.6v6l-16 1v-33h16v6h-10v8zm31-7.6h-5.8v26c-2 0-3.8 0-5.7.2V450h-6v-5.7h17v5.7zm9.3 7.2h7.8v5.7h-7.8v12H255v-31h16v5h-10.3v7zm19.5 13.6c3.2 0 6.5.3 9.6.5v5.6c-5-1-10-1-15.3-1v-32h5.7v27zm14.4 6.5c1.8 0 3.8.2 5.6.4v-33.4h-5.6v33zm30.5-33l-7 17.3 7 19c-2-.2-4-.6-6-1l-4-10.5-4 10c-2 0-4 0-6-1l7-16-6-17h6l4 10 4-9h6z"/>
</svg>