<svg xmlns="http://www.w3.org/2000/svg" viewBox="0 0 464 464">
  <title>Leonie Watson</title>
  <path fill="#a40" d="M232 0c49.4 0 160 26.2 160 168 0 33.7-7 73-24 120-90 16-182 16-272 0-17-47-24-86.3-24-120C72 26.2 182.6 0 232 0z"/>
  <path fill="#a02c2c" d="M390 168c0 33.6-7.2 72.8-24 120-40.2 7-80.7 10.7-121.3 11.5 0 0 2.4-143.6 29.3-293.7 52.3 13.5 116 54.6 116 162z"/>
  <path fill="#FFD7A3" d="M380.4 436.8l-9.6-71.8c-1.8-13-10-24.6-21.8-30.5l-17.2-8.6c-2.6-2-5.5-1-6.8 2l-34-13c-6.6-2-11-8.7-11-15v-26l34.5-14.8c17.8-7.4 29.5-25 29.5-44.3 13.3 0 24-10.8 24-24s-10.7-24-24-24v-24c0-22-18-40-40-40H160c-22 0-40 18-40 40v24c-13.3 0-24 10.6-24 24s10.7 24 24 24c0 19.3 11.7 37 29.5 44.2L184 274v26c0 7-4.4 13-11 15l-34 13c-1.3-2.3-4.2-3.5-6.8-2.2l-15.7 7.7C103 340.5 95 352 93.2 365l-.4 3-9.2 68.8c-2 14.4 9.3 27.2 23.8 27.2h249.2c14.5 0 25.7-12.8 23.8-27.2z"/>
  <path fill="#FDC88E" d="M184 274v26.5c0 5.7-3 10.8-7.8 13.7 63.8 11 100.2-35.8 103.6-40.2H184z"/>
  <path fill="#ffe1b2" d="M344 168v-24c0-22-18-40-40-40l-45-13.2-99 13.2c-11 1.5-21 4.5-28.3 11.7C124.5 123 120 133 120 144v24c-13.3 0-24 10.7-24 24s10.7 24 24 24c0 19.4 11.7 37 29.5 44.3l51.7 21.5c9.8 4 20.2 6.2 30.8 6.2 10.6 0 21-2 30.8-6.2l51.7-21.5c17.8-7.4 29.5-25 29.5-44.3 13.3 0 24-10.7 24-24s-10.7-24-24-24z"/>
  <path fill="#e3dedb" stroke="#623c1d" stroke-opacity=".3" d="M176 192c-4.4 0-8-3.6-8-8v-8c0-4.4 3.6-8 8-8s8 3.6 8 8v8c0 4.4-3.6 8-8 8z"/>
  <path fill="#e3dbdb" stroke="#623c1d" stroke-opacity=".3" d="M288 192c-4.4 0-8-3.6-8-8v-8c0-4.4 3.6-8 8-8s8 3.6 8 8v8c0 4.4-3.6 8-8 8z"/>
  <path fill="#E4B07B" d="M232 248.2c-14.2 0-27.5-3.5-36.5-9.6-3.7-2.5-4.6-7.4-2-11 2.4-3.7 7.3-4.7 11-2.2 6.3 4.3 16.6 6.8 27.5 6.8s21.2-2.5 27.5-6.8c3.7-2.5 8.6-1.6 11 2 2.6 3.8 1.7 8.7-2 11.2-9 6-22.3 9.6-36.5 9.6z"/>
  <path fill="#ffd7a3" d="M120 168c-13.3 0-24 10.7-24 24s10.7 24 24 24c0 19.4 11.7 37 29.5 44.3l51.7 21.5c2.6 1 5 2 7.8 2.8-23-16.7-38-31.3-47-41-6.5-6.8-10-16-10-25.5v-57c24.6 1 50.6-39 96-63l9-6.3S172.6 99 135.3 113c-18 6-15.3 55-15.3 55z"/>
  <path fill="#483737" d="M349 334.5l-17.2-8.6c-3-2-6.3 0-7.2 3-11 40-48.3 70-92.6 70s-81.6-30-92.6-71c-1-3-4.3-4.7-7.2-3l-15.7 7.6c-13.5 7.4-21.5 19-23.3 32l-9.6 71.7C81.6 451 93 464 107.4 464h249.2c14.5 0 25.7-13 23.8-27.3l-9.6-71.8c-1.8-13-10-25-21.8-31z"/>
  <path fill="#241c1c" d="M96.8 353c-1.8 4-3 7.8-3.6 12l-9.6 71.8c-2 14.4 9.3 27.2 23.8 27.2H144v-32c0-10.4-3.4-20.5-9.6-28.8l-37.6-50zm270.4 0c1.8 4 3 7.8 3.6 12l9.6 71.8c2 14.4-9.3 27.2-23.8 27.2H320v-32c0-10.4 3.4-20.5 9.6-28.8l37.6-50z"/>
</svg>