<svg xmlns="http://www.w3.org/2000/svg" viewBox="0 0 464 464">
  <defs>
        <filter
       style="color-interpolation-filters:sRGB;"
      id="b">
      <feGaussianBlur
         stdDeviation="1"
         in="SourceGraphic"
         result="result0"
         />
      <feTurbulence
         result="result1"
         numOctaves="7"
         seed="488"
         baseFrequency="0.017"
         type="turbulence"
         />
      <feComposite
         in="result0"
         in2="result1"
         operator="out"
         result="result2"
         />
      <feGaussianBlur
         stdDeviation="0.5"
         result="result5"
         />
      <feSpecularLighting
         in="result5"
         specularExponent="100"
         specularConstant="4"
         result="result4"
         surfaceScale="1.5"
        >
        <feDistantLight
           azimuth="225"
           elevation="31"
           />
      </feSpecularLighting>
      <feComposite
         operator="atop"
         in="result4"
         in2="result2"
         result="result91"
         />
      <feBlend
         mode="multiply"
         in2="result91"
         />
    </filter>
  </defs>
  <path fill="#9d6e48" d="M232 0C182.6 0 72 29.6 72 189.4c0 38 7 82.2 24 135.3 90 18 182 18 272 0 17-53 24-97.3 24-135.3C392 29.6 281.4 0 232 0z"/>
  <path fill="#3858b4" d="M270 309.6c60 18 39.4 31.8 99.4 14 11.2-53.2 23.2-126.8-2.6-155-56.7-58-95.6 75.8-96.8 141z"/>
  <path fill="#8d5f3d" d="M72 189c0 38.2 7 82.5 24 135.7 40 8 80.6 12.2 121.2 13 0 0-63.5-170.8-29.3-331.8C135.4 21 72 67.4 72 189z"/>
  <path fill="#ffd7a3" d="M380.4 436.8l-9.6-71.8c-1.8-13-10-24.6-21.8-30.5-19.2-10-39.2-11.8-58-19-6.6-2-11-8-11-15v-25.8l34.5-14.4c17.8-7.4 29.5-25 29.5-44.3 13.3 0 24-10.7 24-24s-10.7-24-24-24v-24c0-22-18-40-40-40H160c-22 0-40 18-40 40v24c-13.3 0-24 10.7-24 24s10.7 24 24 24c0 19.4 11.7 37 29.5 44.3l34.5 14.4v25.8c0 7-4.4 13-11 15-19.3 9.6-37 8.5-56.5 18.2C103 340.5 95 352 93.2 365l-.4 3-9.2 68.8c-2 14.4 9.3 27.2 23.8 27.2h249.2c14.5 0 25.7-12.8 23.8-27.2z"/>
  <path fill="#FDC88E" d="M184 274v26.5c0 5.7-3 10.8-7.8 13.7 63.8 11 100.2-35.8 103.6-40.2H184z"/>
  <path fill="#ffe1b2" d="M260 99.2c-29.8-.3-63.6 4.8-96 4.8-22 0-40 18-40 40v24c-13.3 0-24 10.7-24 24s10.7 24 24 24c0 19.4 14.8 40.3 32.3 48.5l46 21.5c10 4 15.5 11 26 11l15.7-.3c10.6 0 15.8-7.3 25.5-11.4l49-25c17.8-7.4 29.5-25 29.5-44.3 13.3 0 24-10.7 24-24s-10.7-24-24-24c-9.5-56.3-44.5-68.3-88-68.8z"/>
  <path fill="#E4B07B" d="M232 248.2c-14.2 0-27.5-3.5-36.5-9.6-3.7-2.5-4.6-7.4-2-11 2.4-3.7 7.3-4.7 11-2.2 6.3 4.3 16.6 6.8 27.5 6.8s21.2-2.5 27.5-6.8c3.7-2.5 8.6-1.6 11 2 2.6 3.8 1.7 8.7-2 11.2-9 6-22.3 9.6-36.5 9.6z"/>
  <path fill="#ffd7a3" d="M120 168c-13.3 0-24 10.7-24 24s10.7 24 24 24c0 19.4 13.3 38.5 29.2 46l50.3 24c20.7 5.8-23.7-27.6-37.5-42.3-6.5-7-10-16-10-25.6v-57.7c24.6.8 77.7 2.8 123-21.4v-31H120z"/>
  <path fill="#9d6e48" d="M117 105v31s21.3 8.3 59 9c4 .2 13.3-43.2 13.3-43.2s-2.6 44 2 43.7H208c1.3 0 4-31 4-31l10.3 30.5c2.2-.2 12.5 0 12.5 0l10-46.2 5 47.6 8-1 16.4-26.4-1 25s29.3-.3 49.2-8l8.2-16 16.4 40v-57s-34-48-118-48-112 50-112 50z"/>
  <path fill="#8D5F3D" d="M203.4 56.7C139.4 65.3 117 105 117 105v31s21 8 58 9c0 0-.5-52.8 28.4-88.3z"/>
  <path fill="rebeccapurple" d="M133 323c-1.3 0-2.6.3-3.7 1L103 339.8c-3.8 2.3-5 7.3-2.7 11L136 408v56h192v-56l35.7-57c2.4-4 1.2-9-2.7-11.2L334.7 324c-3.7-2.2-8.5-1-11 2.7l-28.6 46c-4.2 7-12 11.3-20.2 11.3h-85.4c-8.3 0-16-4.3-20.3-11.3l-28.7-46c-1.6-2.6-4.4-4-7.2-3.8z" filter="url(#b)"/>
  <path fill="#fff" stroke="#734a3e" stroke-width=".9" d="M180.3 192.7c-4.6 0-8.4-4.2-8.4-9.5v-9.5c0-5.2 3-9.4 8-9.4s8 4.2 8 9.4v9.5c0 5.3-4 9.5-9 9.5zm98.3.5c-4.7 0-8.4-4-8.4-9v-9c0-5 3.7-9 8.4-9 4.6 0 8.4 3.2 8.4 8.5v8.4c0 5-3.8 10-8.4 10z"/>
  <circle cx="179.3" cy="181" r="5.3" fill="#734a3e" stroke="#68bfff" stroke-width="4.2"/>
  <circle cx="277" cy="181" r="5.3" fill="#734a3e" stroke="#68bfff" stroke-width="4.2"/>
</svg>