<svg xmlns="http://www.w3.org/2000/svg" viewBox="0 0 464 464">
  <title>
    Paul Irish
  </title>
  <defs>
    <filter id="a" width="1.5" height="1.5" x="-.3" y="-.3" color-interpolation-filters="sRGB">
      <feTurbulence result="result0" seed="20" baseFrequency="0 0.19"/>
      <feTurbulence result="result3" seed="20" baseFrequency="0.19 0"/>
      <feComposite result="result1" operator="arithmetic" in2="result3" in="result0" k2="2" k3="2" k1="3"/>
      <feComposite result="fbSourceGraphic" in="SourceGraphic" operator="in" in2="result1"/>
      <feGaussianBlur result="result8" stdDeviation="50" in="fbSourceGraphic"/>
      <feComposite in="result8" operator="xor" result="result6" in2="result8"/>
      <feDisplacementMap result="result4" scale="25" in2="result6" in="result1"/>
      <feComposite k1="1" in="SourceGraphic" operator="in" result="result2" in2="result4"/>
    </filter>
  </defs>
  <path fill="#ffd7a3" d="M408.8 433.7L398.5 357c-1.6-12.6-10.5-23.4-22.7-27.3-23.6-7.3-49.3-16.4-69.3-23.3-7-2-9-9-11.5-15.7l-10.5-27.3c-54.6 1-44.6 2.4-90.3 27.3 0 7-4.6 13.6-11.6 15.7-28.8 2-52.5 17.3-69.3 23-12 4.3-21 14.8-22.6 27.7l-10.3 77c-2 15 9.7 29 25 29h278.4c15.3 0 27-13 25-28z"/>
  <path fill="#fdc88e" d="M186 305c70.4 12 109-43.3 109-43.3H194.2v29c0 6-3.2 11.2-8.2 14.3z"/>
  <path fill="#ffe1b2" d="M354.8 144.3v-17c0-47-35.2-85-79-85h-63.2c-43.7 0-79 38-79 85v17c-13 0-24.3 11.6-23.8 25.5.5 18 13.4 36.8 24.4 20.4l2 12.6c1.2 7.3 7.5 40 25.3 47.2l49.4 24.2c9 4.2 12 13.7 23 13.7h17c14 0 15-9 25-13l34-26c9.2-5 30.2-47 30.2-47l6.4-14c4 21 27-8 27-22s-15-46-23-25z"/>
  <path fill="#fff" stroke="#734a3e" stroke-width=".9" d="M196.3 176.7c-4.6 0-8.4-4.2-8.4-9.5v-9.5c0-5.2 3-9.4 8-9.4s8 4.2 8 9.4v9.5c0 5.3-4 9.5-9 9.5zm98.3.5c-4.7 0-8.4-4-8.4-9v-9c0-5 3.7-9 8.4-9 4.6 0 8.4 3.2 8.4 8.5v8.4c0 5-3.8 10-8.4 10z"/>
  <circle cx="197.3" cy="163" r="5.3" fill="#734a3e" stroke="#68e8ff" stroke-width="4.2"/>
  <circle cx="295" cy="163" r="5.3" fill="#734a3e" stroke="#68e8ff" stroke-width="4.2"/>
  <path fill="#ffd7a3" d="M174.2 234.4c-6.5-7.6-15-52.3-13.6-62.4l9-76.6-36.8-2.8v51.7c-4.6-21-23.7 11.6-23.7 25.7 0 14.3 19 42.7 25 21.8l3 11.5c3 7 8 41 25 48.8l51 24c3 1 4 4 7 4-22-18-37-36-45-46z"/>
  <path fill="#734a3e" d="M255 12.3l-31.8-8.6-7.7 10.5c-2 4.8-8.2-.2-12.6 2l-7 3.3c-32 16-64 32-64 69V139h4c7 0 14-4.2 16-11.6l8-27.4c2-6 8-11 15-11l35-17 102 18c7 1 12 5 14 11.5l9.4 27.3c2.2 7.3 8.5 11.5 15.5 11.5h4.2V89.7c-.7-76.7-87-75.7-98-76.7z"/>
  <path fill="#5e342e" d="M187.7 19C159 25 133 49.4 133 86.4v50.4h3.6c6 0 11.2-4.6 13-11.5l10-26c3.6-6.8 6.8-9.6 11.5-10.6L211 73l13-67.5c-15.5 3-23.2 13.6-36.3 13.6z"/>
  <g fill="#ccc">
    <path d="M337 462.3h47c15.2 0 27-13.4 25-28.4l-1.6-14-9-72c-1.5-13-10.5-24-22.7-28L321 303c-6.2 13.5-42 41.7-76.5 41.7-34.7 0-71.4-28.2-76.7-41.6l-54.6 18c-12.6 5-21 15-23 28l-7.4 64-3.2 21c-2 15 9.5 29 25.2 29h232z"/>
    <path d="M236.2 319.5l8.4 25.2-27.8.6m36.2-25.8l-8.4 25.2 27.8.6"/>
    <path d="M236.2 319.5l-19.4 25.8c-3.2 4.2-9 4.5-12.6 1l-43.6-43.6 19.7-19.8c3.2-4 8-4 11.4-1l44.5 37zm16.8 0l19.4 25.8c3.2 4.2 9 4.5 12.6 1l43.6-43.6L309 283c-3.3-3.2-8-3.4-11.5-.6l-44.5 37zm0 0l-8.4 25.2-8.4-25.2v142.8H253m-155.2-130c-3.8 4.7-6.3 10.5-7 16.6l-10.5 85c-2 15 9.7 28 24.7 28h47.3v-55c0-9-3-16-8.2-22l-46-53zm293.6 0c3.8 4.7 6.3 10.5 7 16.6l10.5 85c2 15-10 28-25 28h-47v-55c0-9 3-16 8-22l46-54z"/>
  </g>
  <g transform="translate(.98 -24.96) scale(1.05006)" filter="url(#a)">
    <path fill="#c8d8f7" d="M320 464h44.8c14.4 0 25.6-12.7 23.8-27l-1.6-13-8.5-68c-1.5-12.2-10-22.5-21.6-26.4l-52-17.2c-6 12.8-40 39.6-73 39.6s-68-26.8-73-39.6l-52 17.2c-12 4-20 14.2-22 26.4l-7 61-3 20c-2 14.3 9 27 24 27h221z"/>
    <path fill="#c8d8f7" d="M224 328l8 24-26.5.6M240 328l-8 24 26.5.6"/>
    <path fill="#7989a6" d="M224 328l-18.5 24.6c-3 4-8.6 4.3-12 1L152 312l18.8-18.8c3-3 7.6-3.2 10.8-.5L224 328zm16 0l18.5 24.6c3 4 8.6 4.3 12 1L312 312l-18.8-18.8c-3-3-7.6-3.2-10.8-.5L240 328zm0 0l-8 24-8-24v136h16M92.2 340.2c-3.6 4.5-6 10-6.7 15.8l-10 81c-2 14.3 9.3 27 23.7 27H144v-52c0-7.8-2.8-15.2-7.8-21l-44-50.8zm279.6 0c3.6 4.5 6 10 6.7 15.8l10 81c2 14.3-9.3 27-23.7 27H320v-52c0-7.8 2.8-15.2 7.8-21l44-50.8z"/>
  </g>
  <path fill="#734a3e" d="M192.3 134.6c-6.5.5-16 .3-21.3 4.2-3.2 1.7-3.2 4.7-2 6.7 1 2 4 2.5 6.2 1 3-3 9.4-2.8 15.7-3.3 6 0 12-1 15 1 2 2 4 1 6-1 1-2 1-5.3-1-6.3-6-4-14-2-21-2zm102.7-1c6.5.5 16 0 21.4 4 2 1.7 3 4.6 1.4 6.6-1.3 3.2-4.2 3.2-6.3 1-3.8-2-10-2-16.2-2-6.3 0-12.4-1-16 1-2.2 2-5 1-6.4-1-2-2-2-5.3 0-6.3 5-4 13-3 21-2z"/>
  <path fill="#e4b07b" d="M245 235.5c-12 0-23.4-2-31.2-5.6-3-2-4-5-1.7-7 3-2 7-3 10-2 7 3 15 5 24 5 10 0 19-2 25-6 3-1 8 0 10 2s2 5.2-1 7.3c-7.3 4.3-19 6.4-31.4 6.4z"/>
</svg>